<svg width="40" height="40" viewBox="0 0 40 40" fill="none" xmlns="http://www.w3.org/2000/svg">
<path d="M0.715428 14.6243C1.01755 7.07132 7.07132 1.01755 14.6243 0.715428L20 0.5004L25.3757 0.715428C32.9287 1.01755 38.9825 7.07132 39.2846 14.6243L39.4996 20L39.2846 25.3757C38.9825 32.9287 32.9287 38.9825 25.3757 39.2846L20 39.4996L14.6243 39.2846C7.07132 38.9825 1.01755 32.9287 0.715428 25.3757L0.5004 20L0.715428 14.6243Z" fill="#252A4C" stroke="url(#paint0_linear)"/>
<g filter="url(#filter0_d)">
<path d="M20 10C14.48 10 10 14.48 10 20C10 25.52 14.48 30 20 30C25.52 30 30 25.52 30 20C30 14.48 25.52 10 20 10ZM23.61 16.34C24.68 16.34 25.54 17.2 25.54 18.27C25.54 19.34 24.68 20.2 23.61 20.2C22.54 20.2 21.68 19.34 21.68 18.27C21.67 17.2 22.54 16.34 23.61 16.34ZM17.61 14.76C18.91 14.76 19.97 15.82 19.97 17.12C19.97 18.42 18.91 19.48 17.61 19.48C16.31 19.48 15.25 18.42 15.25 17.12C15.25 15.81 16.3 14.76 17.61 14.76ZM17.61 23.89V27.64C15.21 26.89 13.31 25.04 12.47 22.68C13.52 21.56 16.14 20.99 17.61 20.99C18.14 20.99 18.81 21.07 19.51 21.21C17.87 22.08 17.61 23.23 17.61 23.89ZM20 28C19.73 28 19.47 27.99 19.21 27.96V23.89C19.21 22.47 22.15 21.76 23.61 21.76C24.68 21.76 26.53 22.15 27.45 22.91C26.28 25.88 23.39 28 20 28Z" fill="#CACCD6"/>
</g>
<defs>
<filter id="filter0_d" x="6" y="10" width="28" height="28" filterUnits="userSpaceOnUse" color-interpolation-filters="sRGB">
<feFlood flood-opacity="0" result="BackgroundImageFix"/>
<feColorMatrix in="SourceAlpha" type="matrix" values="0 0 0 0 0 0 0 0 0 0 0 0 0 0 0 0 0 0 127 0" result="hardAlpha"/>
<feOffset dy="4"/>
<feGaussianBlur stdDeviation="2"/>
<feColorMatrix type="matrix" values="0 0 0 0 0 0 0 0 0 0 0 0 0 0 0 0 0 0 0.25 0"/>
<feBlend mode="normal" in2="BackgroundImageFix" result="effect1_dropShadow"/>
<feBlend mode="normal" in="SourceGraphic" in2="effect1_dropShadow" result="shape"/>
</filter>
<linearGradient id="paint0_linear" x1="36.8041" y1="2" x2="1.87042" y2="36.363" gradientUnits="userSpaceOnUse">
<stop stop-color="#2B54E7"/>
<stop offset="1" stop-color="white" stop-opacity="0"/>
</linearGradient>
</defs>
</svg>
