<svg width="40" height="40" viewBox="0 0 40 40" fill="none" xmlns="http://www.w3.org/2000/svg">
<path d="M0.715428 14.6243C1.01755 7.07132 7.07132 1.01755 14.6243 0.715428L20 0.5004L25.3757 0.715428C32.9287 1.01755 38.9825 7.07132 39.2846 14.6243L39.4996 20L39.2846 25.3757C38.9825 32.9287 32.9287 38.9825 25.3757 39.2846L20 39.4996L14.6243 39.2846C7.07132 38.9825 1.01755 32.9287 0.715428 25.3757L0.5004 20L0.715428 14.6243Z" fill="#2B54E7" stroke="url(#paint0_linear)"/>
<g filter="url(#filter0_d)">
<path d="M11 19C11 20.1046 11.8954 21 13 21H17C18.1046 21 19 20.1046 19 19V13C19 11.8954 18.1046 11 17 11H13C11.8954 11 11 11.8954 11 13V19ZM11 27C11 28.1046 11.8954 29 13 29H17C18.1046 29 19 28.1046 19 27V25C19 23.8954 18.1046 23 17 23H13C11.8954 23 11 23.8954 11 25V27ZM21 27C21 28.1046 21.8954 29 23 29H27C28.1046 29 29 28.1046 29 27V21C29 19.8954 28.1046 19 27 19H23C21.8954 19 21 19.8954 21 21V27ZM23 11C21.8954 11 21 11.8954 21 13V15C21 16.1046 21.8954 17 23 17H27C28.1046 17 29 16.1046 29 15V13C29 11.8954 28.1046 11 27 11H23Z" fill="white"/>
</g>
<defs>
<filter id="filter0_d" x="7" y="11" width="26" height="26" filterUnits="userSpaceOnUse" color-interpolation-filters="sRGB">
<feFlood flood-opacity="0" result="BackgroundImageFix"/>
<feColorMatrix in="SourceAlpha" type="matrix" values="0 0 0 0 0 0 0 0 0 0 0 0 0 0 0 0 0 0 127 0" result="hardAlpha"/>
<feOffset dy="4"/>
<feGaussianBlur stdDeviation="2"/>
<feColorMatrix type="matrix" values="0 0 0 0 0 0 0 0 0 0 0 0 0 0 0 0 0 0 0.25 0"/>
<feBlend mode="normal" in2="BackgroundImageFix" result="effect1_dropShadow"/>
<feBlend mode="normal" in="SourceGraphic" in2="effect1_dropShadow" result="shape"/>
</filter>
<linearGradient id="paint0_linear" x1="36.8041" y1="2" x2="1.87042" y2="36.363" gradientUnits="userSpaceOnUse">
<stop stop-color="#2B54E7"/>
<stop offset="1" stop-color="white" stop-opacity="0"/>
</linearGradient>
</defs>
</svg>
