<svg width="40" height="40" viewBox="0 0 40 40" fill="none" xmlns="http://www.w3.org/2000/svg">
<path d="M0.715428 14.6243C1.01755 7.07132 7.07132 1.01755 14.6243 0.715428L20 0.5004L25.3757 0.715428C32.9287 1.01755 38.9825 7.07132 39.2846 14.6243L39.4996 20L39.2846 25.3757C38.9825 32.9287 32.9287 38.9825 25.3757 39.2846L20 39.4996L14.6243 39.2846C7.07132 38.9825 1.01755 32.9287 0.715428 25.3757L0.5004 20L0.715428 14.6243Z" fill="#252A4C" stroke="url(#paint0_linear)"/>
<g filter="url(#filter0_d)">
<path d="M15.2 25.6C16.9673 25.6 18.4 24.1673 18.4 22.4C18.4 20.6326 16.9673 19.2 15.2 19.2C13.4327 19.2 12 20.6326 12 22.4C12 24.1673 13.4327 25.6 15.2 25.6Z" fill="#CACCD6"/>
<path d="M22.7998 28C23.9044 28 24.7998 27.1046 24.7998 26C24.7998 24.8954 23.9044 24 22.7998 24C21.6952 24 20.7998 24.8954 20.7998 26C20.7998 27.1046 21.6952 28 22.7998 28Z" fill="#CACCD6"/>
<path d="M23.2004 21.6C25.8514 21.6 28.0004 19.451 28.0004 16.8C28.0004 14.149 25.8514 12 23.2004 12C20.5494 12 18.4004 14.149 18.4004 16.8C18.4004 19.451 20.5494 21.6 23.2004 21.6Z" fill="#CACCD6"/>
</g>
<defs>
<filter id="filter0_d" x="4" y="8" width="32" height="32" filterUnits="userSpaceOnUse" color-interpolation-filters="sRGB">
<feFlood flood-opacity="0" result="BackgroundImageFix"/>
<feColorMatrix in="SourceAlpha" type="matrix" values="0 0 0 0 0 0 0 0 0 0 0 0 0 0 0 0 0 0 127 0" result="hardAlpha"/>
<feOffset dy="4"/>
<feGaussianBlur stdDeviation="2"/>
<feColorMatrix type="matrix" values="0 0 0 0 0 0 0 0 0 0 0 0 0 0 0 0 0 0 0.25 0"/>
<feBlend mode="normal" in2="BackgroundImageFix" result="effect1_dropShadow"/>
<feBlend mode="normal" in="SourceGraphic" in2="effect1_dropShadow" result="shape"/>
</filter>
<linearGradient id="paint0_linear" x1="36.8041" y1="2" x2="1.87042" y2="36.363" gradientUnits="userSpaceOnUse">
<stop stop-color="#2B54E7"/>
<stop offset="1" stop-color="white" stop-opacity="0"/>
</linearGradient>
</defs>
</svg>
