<svg width="39" height="39" viewBox="0 0 39 39" fill="none" xmlns="http://www.w3.org/2000/svg">
<circle cx="19.5" cy="19.5" r="19" fill="url(#paint0_linear)" stroke="url(#paint1_linear)"/>
<g filter="url(#filter0_d)">
<path d="M20 9C14.48 9 10 13.48 10 19C10 24.52 14.48 29 20 29C25.52 29 30 24.52 30 19C30 13.48 25.52 9 20 9ZM23.61 15.34C24.68 15.34 25.54 16.2 25.54 17.27C25.54 18.34 24.68 19.2 23.61 19.2C22.54 19.2 21.68 18.34 21.68 17.27C21.67 16.2 22.54 15.34 23.61 15.34ZM17.61 13.76C18.91 13.76 19.97 14.82 19.97 16.12C19.97 17.42 18.91 18.48 17.61 18.48C16.31 18.48 15.25 17.42 15.25 16.12C15.25 14.81 16.3 13.76 17.61 13.76ZM17.61 22.89V26.64C15.21 25.89 13.31 24.04 12.47 21.68C13.52 20.56 16.14 19.99 17.61 19.99C18.14 19.99 18.81 20.07 19.51 20.21C17.87 21.08 17.61 22.23 17.61 22.89ZM20 27C19.73 27 19.47 26.99 19.21 26.96V22.89C19.21 21.47 22.15 20.76 23.61 20.76C24.68 20.76 26.53 21.15 27.45 21.91C26.28 24.88 23.39 27 20 27Z" fill="white"/>
</g>
<defs>
<filter id="filter0_d" x="6" y="9" width="28" height="28" filterUnits="userSpaceOnUse" color-interpolation-filters="sRGB">
<feFlood flood-opacity="0" result="BackgroundImageFix"/>
<feColorMatrix in="SourceAlpha" type="matrix" values="0 0 0 0 0 0 0 0 0 0 0 0 0 0 0 0 0 0 127 0" result="hardAlpha"/>
<feOffset dy="4"/>
<feGaussianBlur stdDeviation="2"/>
<feColorMatrix type="matrix" values="0 0 0 0 0 0 0 0 0 0 0 0 0 0 0 0 0 0 0.25 0"/>
<feBlend mode="normal" in2="BackgroundImageFix" result="effect1_dropShadow"/>
<feBlend mode="normal" in="SourceGraphic" in2="effect1_dropShadow" result="shape"/>
</filter>
<linearGradient id="paint0_linear" x1="9" y1="4" x2="32.2969" y2="36.5625" gradientUnits="userSpaceOnUse">
<stop stop-color="#2B76E7" stop-opacity="0.64"/>
<stop offset="1" stop-color="#C4C4C4" stop-opacity="0"/>
</linearGradient>
<linearGradient id="paint1_linear" x1="31.5" y1="3" x2="7.5" y2="35.5" gradientUnits="userSpaceOnUse">
<stop stop-color="#2B54E7"/>
<stop offset="1" stop-opacity="0"/>
</linearGradient>
</defs>
</svg>
